Normalized EMG Linear Envelopes
nRows=65
nColumns=17

endheader
time	        VM	        VL	        RF	       GRA	        TA	   ADDLONG	   SEMIMEM	      BFLH	        GM	        GL	       TFL	   GLUTMAX	   GLUTMED	      PIRI	    OBTINT	        QF	
1.72	  0.000000	  0.000000	  0.000000	  0.000000	  0.000000	  0.000000	  0.000000	  0.000000	  0.000000	  0.000000	  0.000000	  0.000000	  0.000000	  0.000000	  0.000000	  0.000000	
1.7205	  0.000000	  0.000000	  0.000000	  0.000000	  0.000000	  0.000000	  0.000000	  0.000000	  0.000000	  0.000000	  0.000000	  0.000000	  0.000000	  0.000000	  0.000000	  0.000000	
1.721	  0.000000	  0.000000	  0.000000	  0.000000	  0.000000	  0.000000	  0.000000	  0.000000	  0.000000	  0.000000	  0.000000	  0.000000	  0.000000	  0.000000	  0.000000	  0.000000	
1.7215	  0.000000	  0.000000	  0.000000	  0.000000	  0.000000	  0.000000	  0.000000	  0.000000	  0.000000	  0.000000	  0.000000	  0.000000	  0.000000	  0.000000	  0.000000	  0.000000	
1.722	  0.000000	  0.000000	  0.000000	  0.000000	  0.000000	  0.000000	  0.000000	  0.000000	  0.000000	  0.000000	  0.000000	  0.000000	  0.000000	  0.000000	  0.000000	  0.000000	
1.7225	  0.000000	  0.000000	  0.000000	  0.000000	  0.000000	  0.000000	  0.000000	  0.000000	  0.000000	  0.000000	  0.000000	  0.000000	  0.000000	  0.000000	  0.000000	  0.000000	
1.723	  0.000000	  0.000000	  0.000000	  0.000000	  0.000000	  0.000000	  0.000000	  0.000000	  0.000000	  0.000000	  0.000000	  0.000000	  0.000000	  0.000000	  0.000000	  0.000000	
1.7235	  0.000000	  0.000000	  0.000000	  0.000000	  0.000000	  0.000000	  0.000000	  0.000000	  0.000000	  0.000000	  0.000000	  0.000000	  0.000000	  0.000000	  0.000000	  0.000000	
1.724	  0.000000	  0.000000	  0.000000	  0.000000	  0.000000	  0.000000	  0.000000	  0.000000	  0.000000	  0.000000	  0.000000	  0.000000	  0.000000	  0.000000	  0.000000	  0.000000	
1.7245	  0.000000	  0.000000	  0.000000	  0.000000	  0.000000	  0.000000	  0.000000	  0.000000	  0.000000	  0.000000	  0.000000	  0.000000	  0.000000	  0.000000	  0.000000	  0.000000	
1.725	  0.000000	  0.000000	  0.000000	  0.000000	  0.000000	  0.000000	  0.000000	  0.000000	  0.000000	  0.000000	  0.000000	  0.000000	  0.000000	  0.000000	  0.000000	  0.000000	
1.7255	  0.000000	  0.000000	  0.000000	  0.000000	  0.000000	  0.000000	  0.000000	  0.000000	  0.000000	  0.000000	  0.000000	  0.000000	  0.000000	  0.000000	  0.000000	  0.000000	
1.726	  0.000000	  0.000000	  0.000000	  0.000000	  0.000000	  0.000000	  0.000000	  0.000000	  0.000000	  0.000000	  0.000000	  0.000000	  0.000000	  0.000000	  0.000000	  0.000000	
1.7265	  0.000000	  0.000000	  0.000000	  0.000000	  0.000000	  0.000000	  0.000000	  0.000000	  0.000000	  0.000000	  0.000000	  0.000000	  0.000000	  0.000000	  0.000000	  0.000000	
1.727	  0.000000	  0.000000	  0.000000	  0.000000	  0.000000	  0.000000	  0.000000	  0.000000	  0.000000	  0.000000	  0.000000	  0.000000	  0.000000	  0.000000	  0.000000	  0.000000	
1.7275	  0.000000	  0.000000	  0.000000	  0.000000	  0.000000	  0.000000	  0.000000	  0.000000	  0.000000	  0.000000	  0.000000	  0.000000	  0.000000	  0.000000	  0.000000	  0.000000	
1.728	  0.000000	  0.000000	  0.000000	  0.000000	  0.000000	  0.000000	  0.000000	  0.000000	  0.000000	  0.000000	  0.000000	  0.000000	  0.000000	  0.000000	  0.000000	  0.000000	
1.7285	  0.000000	  0.000000	  0.000000	  0.000000	  0.000000	  0.000000	  0.000000	  0.000000	  0.000000	  0.000000	  0.000000	  0.000000	  0.000000	  0.000000	  0.000000	  0.000000	
1.729	  0.000000	  0.000000	  0.000000	  0.000000	  0.000000	  0.000000	  0.000000	  0.000000	  0.000000	  0.000000	  0.000000	  0.000000	  0.000000	  0.000000	  0.000000	  0.000000	
1.7295	  0.000000	  0.000000	  0.000000	  0.000000	  0.000000	  0.000000	  0.000000	  0.000000	  0.000000	  0.000000	  0.000000	  0.000000	  0.000000	  0.000000	  0.000000	  0.000000	
1.73	  0.000000	  0.000000	  0.000000	  0.000000	  0.000000	  0.000000	  0.000000	  0.000000	  0.000000	  0.000000	  0.000000	  0.000000	  0.000000	  0.000000	  0.000000	  0.000000	
1.7305	  0.000000	  0.000000	  0.000000	  0.000000	  0.000000	  0.000000	  0.000000	  0.000000	  0.000000	  0.000000	  0.000000	  0.000000	  0.000000	  0.000000	  0.000000	  0.000000	
1.731	  0.000000	  0.000000	  0.000000	  0.000000	  0.000000	  0.000000	  0.000000	  0.000000	  0.000000	  0.000000	  0.000000	  0.000000	  0.000000	  0.000000	  0.000000	  0.000000	
1.7315	  0.000000	  0.000000	  0.000000	  0.000000	  0.000000	  0.000000	  0.000000	  0.000000	  0.000000	  0.000000	  0.000000	  0.000000	  0.000000	  0.000000	  0.000000	  0.000000	
1.732	  0.000000	  0.000000	  0.000000	  0.000000	  0.000000	  0.000000	  0.000000	  0.000000	  0.000000	  0.000000	  0.000000	  0.000000	  0.000000	  0.000000	  0.000000	  0.000000	
1.7325	  0.000000	  0.000000	  0.000000	  0.000000	  0.000000	  0.000002	  0.000000	  0.000000	  0.000000	  0.000000	  0.000000	  0.000000	  0.000000	  0.000000	  0.000000	  0.000000	
1.733	  0.000000	  0.000000	  0.000000	  0.000000	  0.000000	  0.000071	  0.000000	  0.000000	  0.000000	  0.000000	  0.000000	  0.000000	  0.000000	  0.000000	  0.000000	  0.000000	
1.7335	  0.000000	  0.000000	  0.000000	  0.000000	  0.000000	  0.000141	  0.000000	  0.000000	  0.000000	  0.000000	  0.000000	  0.000000	  0.000000	  0.000000	  0.000000	  0.000000	
1.734	  0.000000	  0.000000	  0.000000	  0.000000	  0.000000	  0.000215	  0.000000	  0.000000	  0.000000	  0.000000	  0.000000	  0.000000	  0.000000	  0.000000	  0.000000	  0.000000	
1.7345	  0.000000	  0.000000	  0.000000	  0.000000	  0.000000	  0.000290	  0.000000	  0.000000	  0.000000	  0.000000	  0.000000	  0.000000	  0.000000	  0.000000	  0.000000	  0.000000	
1.735	  0.000000	  0.000000	  0.000000	  0.000000	  0.000000	  0.000368	  0.000000	  0.000000	  0.000000	  0.000000	  0.000000	  0.000000	  0.000266	  0.000000	  0.000563	  0.000000	
1.7355	  0.000000	  0.000000	  0.000000	  0.000250	  0.000000	  0.000449	  0.000000	  0.000000	  0.000000	  0.000000	  0.000000	  0.000000	  0.000666	  0.000000	  0.001194	  0.000000	
1.736	  0.000000	  0.000000	  0.000000	  0.000535	  0.000000	  0.000531	  0.000000	  0.000000	  0.000000	  0.000000	  0.000000	  0.000000	  0.001079	  0.000000	  0.001847	  0.000000	
1.7365	  0.000000	  0.000000	  0.000000	  0.000828	  0.000000	  0.000617	  0.000000	  0.000000	  0.000000	  0.000000	  0.000000	  0.000000	  0.001506	  0.000000	  0.002520	  0.000000	
1.737	  0.000000	  0.000000	  0.000000	  0.001131	  0.000000	  0.000705	  0.000000	  0.000000	  0.000000	  0.000000	  0.000000	  0.000000	  0.001945	  0.000000	  0.003214	  0.000000	
1.7375	  0.000000	  0.000000	  0.000000	  0.001444	  0.000000	  0.000795	  0.000000	  0.000000	  0.000000	  0.000000	  0.000000	  0.000000	  0.002399	  0.000000	  0.003931	  0.000000	
1.738	  0.000000	  0.000000	  0.000000	  0.001766	  0.000000	  0.000888	  0.000000	  0.000000	  0.000000	  0.000000	  0.000000	  0.000000	  0.002867	  0.000000	  0.004669	  0.000000	
1.7385	  0.000000	  0.000000	  0.000000	  0.002098	  0.000000	  0.000984	  0.000000	  0.000000	  0.000000	  0.000000	  0.000000	  0.000000	  0.003349	  0.000000	  0.005429	  0.000000	
1.739	  0.000000	  0.000000	  0.000000	  0.002441	  0.000000	  0.001082	  0.000000	  0.000000	  0.000000	  0.000000	  0.000000	  0.000000	  0.003845	  0.000000	  0.006212	  0.000000	
1.7395	  0.000000	  0.000000	  0.000000	  0.002793	  0.000000	  0.001183	  0.000000	  0.000000	  0.000000	  0.000000	  0.000000	  0.000000	  0.004356	  0.000000	  0.007018	  0.000000	
1.74	  0.000000	  0.000000	  0.000000	  0.003156	  0.000000	  0.001287	  0.000129	  0.000000	  0.000000	  0.000000	  0.000000	  0.000000	  0.004882	  0.000000	  0.007848	  0.000000	
1.7405	  0.000000	  0.000000	  0.000000	  0.003529	  0.000000	  0.001394	  0.000414	  0.000000	  0.000000	  0.000000	  0.000000	  0.000000	  0.005422	  0.000000	  0.008701	  0.000000	
1.741	  0.000000	  0.000000	  0.000000	  0.003913	  0.000000	  0.001503	  0.000709	  0.000000	  0.000000	  0.000000	  0.000000	  0.000000	  0.005978	  0.000000	  0.009578	  0.000000	
1.7415	  0.000000	  0.000000	  0.000000	  0.004308	  0.000000	  0.001616	  0.001013	  0.000000	  0.000000	  0.000000	  0.000133	  0.000000	  0.006550	  0.000000	  0.010479	  0.000000	
1.742	  0.000000	  0.000000	  0.000000	  0.004713	  0.000000	  0.001731	  0.001327	  0.000000	  0.000000	  0.000000	  0.000277	  0.000000	  0.007137	  0.000000	  0.011405	  0.001583	
1.7425	  0.000208	  0.000000	  0.000040	  0.005130	  0.000000	  0.001849	  0.001651	  0.000000	  0.000000	  0.000000	  0.000426	  0.000000	  0.007740	  0.000000	  0.012355	  0.003941	
1.743	  0.001029	  0.000000	  0.000187	  0.005558	  0.000000	  0.001970	  0.001985	  0.000000	  0.000000	  0.000000	  0.000579	  0.000727	  0.008359	  0.000000	  0.013331	  0.006377	
1.7435	  0.001877	  0.000000	  0.000339	  0.005997	  0.000000	  0.002094	  0.002329	  0.000000	  0.000000	  0.000000	  0.000738	  0.001639	  0.008994	  0.000000	  0.014333	  0.008891	
1.744	  0.002752	  0.000452	  0.000496	  0.006448	  0.000000	  0.002221	  0.002683	  0.000000	  0.000000	  0.000000	  0.000901	  0.002582	  0.009645	  0.000175	  0.015360	  0.011485	
1.7445	  0.003656	  0.001339	  0.000658	  0.006910	  0.000000	  0.002351	  0.003048	  0.000000	  0.000000	  0.000000	  0.001069	  0.003554	  0.010313	  0.000882	  0.016413	  0.014161	
1.745	  0.004588	  0.002256	  0.000826	  0.007384	  0.000000	  0.002485	  0.003423	  0.000000	  0.000000	  0.000000	  0.001243	  0.004558	  0.010998	  0.001612	  0.017493	  0.016919	
1.7455	  0.005549	  0.003202	  0.000998	  0.007870	  0.000000	  0.002621	  0.003809	  0.000000	  0.000000	  0.000000	  0.001421	  0.005593	  0.011700	  0.002366	  0.018599	  0.019761	
1.746	  0.006539	  0.004178	  0.001175	  0.008368	  0.000000	  0.002760	  0.004207	  0.000005	  0.000000	  0.000000	  0.001605	  0.006660	  0.012419	  0.003144	  0.019732	  0.022688	
1.7465	  0.007559	  0.005184	  0.001358	  0.008878	  0.000000	  0.002903	  0.004615	  0.000862	  0.000000	  0.000000	  0.001794	  0.007759	  0.013156	  0.003947	  0.020893	  0.025701	
1.747	  0.008609	  0.006222	  0.001547	  0.009400	  0.000000	  0.003049	  0.005034	  0.001747	  0.000000	  0.000000	  0.001988	  0.008890	  0.013909	  0.004774	  0.022080	  0.028801	
1.7475	  0.009690	  0.007292	  0.001740	  0.009935	  0.000000	  0.003198	  0.005465	  0.002662	  0.000000	  0.000000	  0.002188	  0.010055	  0.014681	  0.005627	  0.023296	  0.031990	
1.748	  0.010802	  0.008393	  0.001940	  0.010482	  0.000000	  0.003350	  0.005907	  0.003605	  0.000000	  0.000000	  0.002393	  0.011254	  0.015470	  0.006505	  0.024540	  0.035268	
1.7485	  0.011946	  0.009527	  0.002145	  0.011042	  0.000000	  0.003506	  0.006361	  0.004579	  0.000000	  0.000333	  0.002604	  0.012487	  0.016278	  0.007410	  0.025812	  0.038638	
1.749	  0.013121	  0.010694	  0.002356	  0.011615	  0.000000	  0.003664	  0.006826	  0.005583	  0.000000	  0.001649	  0.002821	  0.013755	  0.017103	  0.008341	  0.027112	  0.042100	
1.7495	  0.014329	  0.011894	  0.002572	  0.012200	  0.000045	  0.003827	  0.007304	  0.006618	  0.000000	  0.003009	  0.003043	  0.015057	  0.017947	  0.009298	  0.028441	  0.045655	
1.75	  0.015569	  0.013128	  0.002795	  0.012798	  0.000312	  0.003992	  0.007793	  0.007684	  0.000000	  0.004413	  0.003271	  0.016396	  0.018809	  0.010283	  0.029799	  0.049304	
1.7505	  0.016843	  0.014397	  0.003023	  0.013409	  0.000587	  0.004161	  0.008295	  0.008782	  0.000000	  0.005862	  0.003506	  0.017770	  0.019690	  0.011295	  0.031186	  0.053049	
1.751	  0.018150	  0.015700	  0.003257	  0.014034	  0.000871	  0.004333	  0.008809	  0.009912	  0.000000	  0.007357	  0.003746	  0.019181	  0.020589	  0.012336	  0.032603	  0.056891	
1.7515	  0.019492	  0.017039	  0.003498	  0.014671	  0.001165	  0.004508	  0.009335	  0.011074	  0.000000	  0.008898	  0.003992	  0.020628	  0.021508	  0.013404	  0.034049	  0.060831	
1.752	  0.020867	  0.018413	  0.003745	  0.015322	  0.001468	  0.004687	  0.009874	  0.012270	  0.000000	  0.010486	  0.004244	  0.022113	  0.022445	  0.014501	  0.035525	  0.064870	
